<svg xmlns="http://www.w3.org/2000/svg" width="24" height="25" viewBox="0 0 24 25" fill="none">
  <path d="M13.5 1.60871C13.0439 1.34541 12.5266 1.20679 12 1.20679C11.4734 1.20679 10.9561 1.34541 10.5 1.60871L3 5.93871C2.69597 6.11424 2.4435 6.36671 2.26796 6.67074C2.09243 6.97477 2.00001 7.31965 2 7.67071V21.0937C2 21.3589 2.10536 21.6133 2.29289 21.8008C2.48043 21.9884 2.73478 22.0937 3 22.0937H9C9.26522 22.0937 9.51957 21.9884 9.70711 21.8008C9.89464 21.6133 10 21.3589 10 21.0937V15.0937H14V21.0937C14 21.3589 14.1054 21.6133 14.2929 21.8008C14.4804 21.9884 14.7348 22.0937 15 22.0937H21C21.2652 22.0937 21.5196 21.9884 21.7071 21.8008C21.8946 21.6133 22 21.3589 22 21.0937V7.67071C22 7.31965 21.9076 6.97477 21.732 6.67074C21.5565 6.36671 21.304 6.11424 21 5.93871L13.5 1.60871Z" fill="white"/>
</svg>
