<svg xmlns="http://www.w3.org/2000/svg" width="24" height="25" viewBox="0 0 24 25" fill="none">
  <path d="M10.533 1.3727C5.35298 1.3727 1.12598 5.5127 1.12598 10.6517C1.12598 15.7907 5.35198 19.9307 10.533 19.9307C12.767 19.9307 14.823 19.1607 16.44 17.8727L20.793 22.2257C20.8852 22.3212 20.9956 22.3974 21.1176 22.4498C21.2396 22.5022 21.3708 22.5298 21.5036 22.531C21.6364 22.5321 21.768 22.5068 21.8909 22.4565C22.0138 22.4062 22.1255 22.332 22.2194 22.2381C22.3133 22.1442 22.3875 22.0326 22.4378 21.9097C22.4881 21.7868 22.5134 21.6551 22.5122 21.5223C22.5111 21.3895 22.4835 21.2583 22.4311 21.1363C22.3787 21.0143 22.3025 20.904 22.207 20.8117L17.863 16.4677C19.2079 14.828 19.942 12.7724 19.94 10.6517C19.94 5.5117 15.714 1.3717 10.533 1.3717V1.3727ZM3.12598 10.6517C3.12598 6.6457 6.42798 3.3717 10.533 3.3717C14.638 3.3717 17.94 6.6457 17.94 10.6517C17.94 14.6577 14.638 17.9307 10.533 17.9307C6.42798 17.9307 3.12598 14.6587 3.12598 10.6517Z" fill="white" fill-opacity="0.7"/>
</svg>
