<svg xmlns="http://www.w3.org/2000/svg" width="131" height="41" viewBox="0 0 131 41" fill="none">
  <path d="M0.924316 20.6155C0.924316 31.2434 9.70386 40.0229 20.3317 40.0229C30.9596 40.0229 39.7391 31.2434 39.7391 20.6155C39.7391 9.98763 30.9596 1.32361 20.3317 1.32361C9.70386 1.32361 0.924316 9.98763 0.924316 20.6155ZM27.494 29.6261C22.9887 26.8536 17.2127 26.1605 10.5125 27.6622C8.89522 27.8933 8.66418 25.5829 10.0504 25.3518C17.4437 23.619 23.6818 24.4277 28.7647 27.5467C30.0354 28.3554 28.7647 30.3192 27.494 29.6261ZM29.4578 24.4277C24.2594 21.1931 16.2885 20.2689 10.1659 22.1173C8.20209 22.6949 7.50897 19.6913 9.3573 19.2293C16.404 17.1499 25.0681 18.1896 31.0751 21.8862C32.6924 22.9259 31.0751 25.4673 29.4578 24.4277ZM9.24178 16.2257C7.27793 16.9188 6.00721 13.5688 8.20209 12.7601C15.0178 10.6808 26.5698 11.0273 33.7321 15.3016C35.6959 16.3412 33.8476 19.5758 31.7682 18.4206C25.5301 14.724 15.1333 14.3774 9.24178 16.2257ZM53.024 26.7381C51.0601 26.7381 49.2118 26.0449 47.5945 24.4277C47.479 24.4277 47.479 24.5432 47.479 24.5432L45.6307 26.7381C45.5151 26.8536 45.5151 26.9691 45.6307 27.0846C47.71 28.933 50.2515 29.8571 53.024 29.8571C56.9516 29.8571 59.3776 27.6622 59.3776 24.4277C59.3776 21.6552 57.6448 20.1534 53.6016 19.1137C50.2515 18.3051 49.6739 17.7275 49.6739 16.5723C49.6739 15.4171 50.8291 14.724 52.3308 14.724C53.8326 14.724 55.2188 15.3016 56.8361 16.4568C56.8361 16.4568 56.9516 16.5723 57.0672 16.5723C57.1827 16.5723 57.1827 16.4568 57.1827 16.4568L58.8 14.1464C58.9155 14.0308 58.9155 14.0308 58.8 13.9153C56.9516 12.4136 54.7568 11.6049 52.3308 11.6049C48.7497 11.6049 46.2083 13.7998 46.2083 16.9188C46.2083 20.2689 48.5187 21.3086 52.2153 22.2328C55.4499 22.9259 55.912 23.619 55.912 24.7742C55.912 26.0449 54.7568 26.7381 53.024 26.7381ZM63.9984 17.843V16.3412C63.9984 16.2257 63.8829 16.1102 63.7673 16.1102H60.7638C60.6483 16.1102 60.5328 16.2257 60.5328 16.3412V33.3227C60.5328 33.4382 60.6483 33.5538 60.7638 33.5538H63.7673C63.8829 33.5538 63.9984 33.4382 63.9984 33.3227V28.0088C65.1536 29.2795 66.4243 29.8571 68.1571 29.8571C71.2762 29.8571 74.3952 27.4312 74.3952 22.8104C74.3952 18.1896 71.2762 15.8792 68.1571 15.8792C66.4243 15.8792 65.1536 16.4568 63.9984 17.843ZM67.464 26.8536C65.3846 26.8536 63.8829 25.1208 63.8829 22.8104C63.8829 20.5 65.3846 18.8827 67.464 18.8827C69.5434 18.8827 70.9296 20.5 70.9296 22.8104C70.9296 25.1208 69.5434 26.8536 67.464 26.8536ZM75.3194 22.9259C75.3194 26.8536 78.4384 29.8571 82.4816 29.8571C86.5248 29.8571 89.6439 26.7381 89.6439 22.8104C89.6439 18.8827 86.6404 15.8792 82.5972 15.8792C78.5539 15.8792 75.3194 18.9982 75.3194 22.9259ZM78.785 22.8104C78.785 20.5 80.2867 18.8827 82.4816 18.8827C84.6765 18.8827 86.2938 20.6155 86.2938 22.9259C86.2938 25.2363 84.792 26.8536 82.5972 26.8536C80.4023 26.8536 78.785 25.1208 78.785 22.8104ZM94.9578 16.1102V12.7601C94.9578 12.6446 94.9578 12.5291 94.8423 12.5291H91.8388C91.7233 12.5291 91.6077 12.6446 91.6077 12.7601V16.1102H90.106C89.9904 16.1102 89.8749 16.2257 89.8749 16.3412V18.8827C89.8749 18.9982 89.9904 19.1137 90.106 19.1137H91.6077V25.8139C91.6077 28.4709 92.8785 29.8571 95.5354 29.8571C96.5751 29.8571 97.6148 29.6261 98.4234 29.164C98.5389 29.164 98.5389 29.0485 98.5389 28.933V26.507C98.5389 26.3915 98.5389 26.276 98.4234 26.276H98.1924C97.6148 26.6226 96.9217 26.7381 96.3441 26.7381C95.4199 26.7381 94.9578 26.276 94.9578 25.3518V19.1137H98.4234C98.5389 19.1137 98.6545 18.9982 98.6545 18.8827V16.3412C98.6545 16.2257 98.5389 16.1102 98.4234 16.1102H94.9578ZM109.86 15.7636C109.86 14.4929 110.322 14.0308 111.362 14.0308C111.939 14.0308 112.517 14.0308 113.095 14.2619H113.21C113.21 14.2619 113.326 14.1464 113.326 14.0308V11.6049C113.326 11.4894 113.326 11.3739 113.21 11.3739C112.632 11.1428 111.824 11.0273 110.669 11.0273C107.896 11.0273 106.51 12.6446 106.51 15.5326V16.1102H105.008C104.893 16.1102 104.777 16.2257 104.777 16.3412V18.8827C104.777 18.9982 104.893 19.1137 105.008 19.1137H106.51V29.395C106.51 29.5106 106.625 29.6261 106.741 29.6261H109.744C109.86 29.6261 109.86 29.5106 109.86 29.395V19.1137H112.748L117.022 29.395C116.56 30.4347 116.098 30.6658 115.405 30.6658C114.827 30.6658 114.25 30.5502 113.672 30.2037H113.557L113.441 30.3192L112.401 32.5141C112.401 32.6296 112.401 32.8606 112.517 32.8606C113.557 33.4382 114.481 33.6693 115.636 33.6693C117.831 33.6693 119.102 32.6296 120.141 29.8571L125.34 16.4568V16.2257C125.34 16.1102 125.224 16.1102 125.109 16.1102H121.99C121.874 16.1102 121.874 16.2257 121.874 16.3412L118.639 25.3518L115.174 16.3412C115.174 16.2257 115.058 16.1102 114.943 16.1102H109.86V15.7636ZM100.272 16.1102C100.156 16.1102 100.041 16.2257 100.041 16.3412V29.395C100.041 29.5106 100.156 29.6261 100.272 29.6261H103.275C103.391 29.6261 103.391 29.5106 103.391 29.395V16.3412C103.391 16.2257 103.391 16.1102 103.275 16.1102H100.272ZM99.5786 12.298C99.5786 13.4532 100.618 14.4929 101.774 14.4929C102.929 14.4929 103.853 13.4532 103.853 12.298C103.853 11.1428 102.929 10.2187 101.774 10.2187C100.618 10.2187 99.5786 11.1428 99.5786 12.298ZM127.881 20.2689C129.036 20.2689 130.076 19.3448 130.076 18.1896C130.076 17.0344 129.036 16.1102 127.881 16.1102C126.726 16.1102 125.802 17.0344 125.802 18.1896C125.802 19.3448 126.726 20.2689 127.881 20.2689ZM127.881 16.3412C128.921 16.3412 129.845 17.1499 129.845 18.1896C129.845 19.2293 128.921 20.0379 127.881 20.0379C126.841 20.0379 126.033 19.2293 126.033 18.1896C126.033 17.1499 126.841 16.3412 127.881 16.3412ZM128.343 18.4206C128.69 18.3051 128.921 18.074 128.921 17.7275C128.921 17.2654 128.459 17.0344 127.997 17.0344H127.072V19.2293H127.535V18.5361H127.997L128.459 19.2293H129.036L128.343 18.4206ZM127.997 17.3809C128.228 17.3809 128.459 17.4964 128.459 17.7275C128.459 17.9585 128.228 18.074 127.997 18.074H127.535V17.3809H127.997Z" fill="white"/>
</svg>
